<svg width="15" height="15" viewBox="0 0 15 15" fill="none" xmlns="http://www.w3.org/2000/svg">
<g clip-path="url(#clip0_34_2)">
<path d="M0.77508 15C0.577525 15 0.379921 14.9249 0.229813 14.7737C-0.0715589 14.4723 -0.0715589 13.9837 0.229813 13.6823L13.6861 0.225999C13.9874 -0.0753736 14.476 -0.0753736 14.7774 0.225999C15.0788 0.527371 15.0788 1.01598 14.7774 1.31755L1.32131 14.7737C1.17639 14.9185 0.97995 14.9999 0.77508 15Z" fill="white"/>
<path d="M14.2323 15.0001C14.1309 15.0003 14.0306 14.9804 13.937 14.9416C13.8434 14.9027 13.7584 14.8456 13.687 14.7737L0.229813 1.31759C-0.0715589 1.01602 -0.0715589 0.527463 0.229813 0.22609C0.531186 -0.075282 1.01975 -0.075282 1.32131 0.22609L14.7774 13.6823C15.0788 13.9837 15.0788 14.4723 14.7774 14.7737C14.6262 14.924 14.4288 15.0001 14.2323 15.0001Z" fill="white"/>
</g>
<defs>
<clipPath id="clip0_34_2">
<rect width="15" height="15" fill="white"/>
</clipPath>
</defs>
</svg>
