<svg width="20" height="20" viewBox="0 0 20 20" fill="none" xmlns="http://www.w3.org/2000/svg">
<path d="M19.6615 18.0282L12.0766 10.4605C13.8986 7.86925 13.6581 4.25904 11.3431 1.94363C8.75226 -0.647875 4.53513 -0.647875 1.94363 1.94363C-0.647875 4.53491 -0.647875 8.75162 1.94363 11.3431C4.25883 13.659 7.86882 13.8986 10.4603 12.0759L18.0278 19.6613C18.2444 19.8777 18.5382 19.9993 18.8444 19.9993C19.1507 19.9993 19.4444 19.8777 19.6611 19.6613C19.7685 19.5542 19.8537 19.4269 19.9118 19.2868C19.97 19.1467 20 18.9965 20 18.8448C20 18.6931 19.9702 18.5429 19.9121 18.4028C19.854 18.2627 19.7688 18.1354 19.6615 18.0282ZM6.59768 11.2257C4.03749 11.2257 1.96173 9.15062 1.96173 6.59065C1.96173 4.03004 4.03749 1.9547 6.59768 1.9547C9.15701 1.9547 11.2328 4.03004 11.2328 6.59065C11.2328 9.15062 9.15701 11.2257 6.59768 11.2257Z" fill="#272343"/>
</svg>
